<svg version="1.1" id="Layer_1" xmlns="http://www.w3.org/2000/svg" xmlns:xlink="http://www.w3.org/1999/xlink" x="0px" y="0px"
	 width="100%" viewBox="0 0 429 377" enable-background="new 0 0 429 377" xml:space="preserve">
<path fill="#FFFFFF" opacity="1.000000" stroke="none" 
	d="
M300.000000,378.000000 
	C200.030853,378.000000 100.561714,378.000000 1.046286,378.000000 
	C1.046286,252.403183 1.046286,126.806335 1.046286,1.104744 
	C143.885757,1.104744 286.771606,1.104744 429.828735,1.104744 
	C429.828735,126.666473 429.828735,252.333221 429.828735,378.000000 
	C386.806396,378.000000 343.653198,378.000000 300.000000,378.000000 
M222.874359,303.453735 
	C249.167084,293.287079 270.094727,276.775452 284.395996,251.917892 
	C283.414886,251.175537 282.849426,250.505814 282.134216,250.242004 
	C265.905884,244.255615 249.686417,238.241867 233.371872,232.498642 
	C232.056992,232.035751 229.609161,233.030182 228.488708,234.149292 
	C226.279388,236.355927 224.879913,239.362686 222.713135,241.624283 
	C205.831451,259.244690 184.574341,263.220062 161.765610,259.247192 
	C138.756195,255.239334 124.395187,240.056961 115.900444,218.993805 
	C108.518936,200.690964 107.523079,181.438980 109.239212,162.124008 
	C110.554520,147.320312 114.327454,133.053787 122.406281,120.167496 
	C148.956360,77.818260 206.390778,85.428078 225.905182,117.458054 
	C227.752228,120.489685 229.801102,120.310120 232.629395,119.256157 
	C244.941330,114.668129 257.307800,110.226570 269.647736,105.713409 
	C274.082428,104.091476 278.498199,102.417809 284.221893,100.283203 
	C277.291779,91.401878 271.704834,82.841789 264.751862,75.591759 
	C243.239349,53.160191 216.118958,42.323166 185.540375,40.224415 
	C163.603165,38.718758 142.006943,41.546902 121.317474,49.355724 
	C90.116409,61.131943 68.032799,82.555977 54.837971,113.160896 
	C48.596306,127.638199 45.353832,142.823608 43.833500,158.474670 
	C41.237606,185.198120 43.886028,211.302200 53.421314,236.437241 
	C62.364964,260.012756 77.459038,278.893616 98.932213,292.351898 
	C120.707397,305.999481 144.988617,310.926147 170.231918,311.828094 
	C187.999664,312.462952 205.331268,309.559723 222.874359,303.453735 
M327.167969,221.520920 
	C318.532959,228.431061 312.471344,236.996170 311.123260,248.181274 
	C309.058838,265.309875 319.170227,282.247864 335.201385,288.507904 
	C350.536346,294.496063 368.222595,290.479980 379.392670,276.145721 
	C393.920441,257.502594 387.885284,229.450226 366.783051,219.001495 
	C353.522156,212.435379 340.408691,213.565109 327.167969,221.520920 
z"/>
<path fill="#9DDFBB" opacity="1.000000" stroke="none" 
	d="
M222.516266,303.610291 
	C205.331268,309.559723 187.999664,312.462952 170.231918,311.828094 
	C144.988617,310.926147 120.707397,305.999481 98.932213,292.351898 
	C77.459038,278.893616 62.364964,260.012756 53.421314,236.437241 
	C43.886028,211.302200 41.237606,185.198120 43.833500,158.474670 
	C45.353832,142.823608 48.596306,127.638199 54.837971,113.160896 
	C68.032799,82.555977 90.116409,61.131943 121.317474,49.355724 
	C142.006943,41.546902 163.603165,38.718758 185.540375,40.224415 
	C216.118958,42.323166 243.239349,53.160191 264.751862,75.591759 
	C271.704834,82.841789 277.291779,91.401878 284.221893,100.283203 
	C278.498199,102.417809 274.082428,104.091476 269.647736,105.713409 
	C257.307800,110.226570 244.941330,114.668129 232.629395,119.256157 
	C229.801102,120.310120 227.752228,120.489685 225.905182,117.458054 
	C206.390778,85.428078 148.956360,77.818260 122.406281,120.167496 
	C114.327454,133.053787 110.554520,147.320312 109.239212,162.124008 
	C107.523079,181.438980 108.518936,200.690964 115.900444,218.993805 
	C124.395187,240.056961 138.756195,255.239334 161.765610,259.247192 
	C184.574341,263.220062 205.831451,259.244690 222.713135,241.624283 
	C224.879913,239.362686 226.279388,236.355927 228.488708,234.149292 
	C229.609161,233.030182 232.056992,232.035751 233.371872,232.498642 
	C249.686417,238.241867 265.905884,244.255615 282.134216,250.242004 
	C282.849426,250.505814 283.414886,251.175537 284.395996,251.917892 
	C270.094727,276.775452 249.167084,293.287079 222.516266,303.610291 
z"/>
<path fill="#D0C6F0" opacity="1.000000" stroke="none" 
	d="
M327.475037,221.326111 
	C340.408691,213.565109 353.522156,212.435379 366.783051,219.001495 
	C387.885284,229.450226 393.920441,257.502594 379.392670,276.145721 
	C368.222595,290.479980 350.536346,294.496063 335.201385,288.507904 
	C319.170227,282.247864 309.058838,265.309875 311.123260,248.181274 
	C312.471344,236.996170 318.532959,228.431061 327.475037,221.326111 
z"/>
</svg>