<!DOCTYPE svg PUBLIC "-//W3C//DTD SVG 1.1//EN" "http://www.w3.org/Graphics/SVG/1.1/DTD/svg11.dtd">
<!-- Uploaded to: SVG Repo, www.svgrepo.com, Transformed by: SVG Repo Mixer Tools -->
<svg width="800px" height="800px" viewBox="-116 -116 1392.00 1392.00" fill="#000000" class="icon" version="1.1" xmlns="http://www.w3.org/2000/svg">
<g id="SVGRepo_bgCarrier" stroke-width="0">
<path transform="translate(-116, -116), scale(43.5)" d="M16,26.591491213534027C17.835729461856275,26.078435467118087,19.704835054168626,26.130628384211644,21.5281321790535,25.57500580507711C23.797963351670564,24.883308641122508,26.992381805275595,25.07730336500223,28.0073316365204,22.932436152594164C29.051819252323817,20.72514750448889,25.93791502280301,18.438936528290583,26.059018972329795,16C26.190325596351016,13.355589780653325,29.147524637662386,11.270637582214157,28.716102702070735,8.658354681916538C28.279376390794827,6.013953503076267,26.43749943420948,3.036350125424696,23.821636339416735,2.4525284618031833C21.00315818441126,1.8234861359216143,18.88753268576744,5.861155441224525,16,5.820310042239726C13.041974042344942,5.778467485428735,10.688944286742686,0.8932768800297652,8.049555134493861,2.2294255501682496C5.486739400933866,3.5268101481494085,7.8198439095809835,7.972896913567832,6.605539650543644,10.576105788350102C5.5500247601254795,12.838904184840704,2.308480550496886,13.598190804122568,1.6260724221356213,15.999999999999998C0.9159215913391349,18.499452636888925,1.7442283358158535,21.234696423038976,2.918647154999059,23.552522586425756C4.125619576746119,25.934596350840824,5.743436004977291,28.655313284712363,8.34457159182056,29.259590956672906C11.02244931250626,29.881696825754023,13.352274193951136,27.331486385999973,16,26.591491213534027" fill="#bcf5df" strokewidth="0"/>
</g>
<g id="SVGRepo_tracerCarrier" stroke-linecap="round" stroke-linejoin="round"/>
<g id="SVGRepo_iconCarrier">
<path d="M1115.534025 859.681661c-28.641292 0-55.658593 9.153403-78.542099 26.426759l-43.847751 33.217993c-14.615917 11.072664-35.137255 11.2203-49.900807 0l-43.847751-33.217993a130.435986 130.435986 0 0 0-156.936563 0l-43.847751 33.217993c-14.763552 11.072664-35.28489 11.072664-49.900807 0l-43.847751-33.217993c-43.55248-33.070358-103.344867-34.546713-148.668973-5.314879V813.471742l45.324106-34.399078a41.633218 41.633218 0 0 1 49.900807 0l43.847751 33.217993c46.209919 35.137255 110.726644 34.989619 156.936563 0l43.847751-33.217993c14.763552-11.072664 35.28489-11.2203 49.900807 0l43.847751 33.217993a129.623991 129.623991 0 0 0 78.542099 26.279124c27.755479 0 55.363322-8.710496 78.542099-26.279124l43.847751-33.217993c7.086505-5.462514 15.649366-8.267589 24.655133-8.415225a44.231603 44.231603 0 0 0 43.995386-44.585928 44.26113 44.26113 0 0 0-44.290657-43.995386h-0.295271c-28.198385 0.147636-55.068051 9.301038-77.508651 26.426759l-43.847751 33.217993c-14.615917 11.072664-35.28489 11.072664-49.900807 0l-43.847751-33.217993a129.99308 129.99308 0 0 0-156.936563 0l-43.847751 33.217993c-14.763552 11.2203-35.28489 11.2203-49.900807 0l-43.847751-33.217993c-43.55248-33.070358-103.344867-34.546713-148.668973-5.314879v-67.3218l45.324106-34.399077a41.633218 41.633218 0 0 1 49.900807 0l43.847751 33.217993c46.209919 35.137255 110.726644 34.989619 156.936563 0l43.847751-33.217993c14.763552-11.2203 35.28489-11.2203 49.900807 0l43.847751 33.217993a129.623991 129.623991 0 0 0 78.542099 26.279124c27.755479 0 55.363322-8.710496 78.542099-26.279124l43.847751-33.217993c7.086505-5.314879 15.50173-8.267589 24.359862-8.415225a44.290657 44.290657 0 0 0-0.590542-88.581315h-0.590542c-27.903114 0.442907-54.329873 9.448674-76.622838 26.426759l-43.847751 33.217993c-14.615917 11.072664-35.28489 11.072664-49.900807 0l-43.847751-33.217993a130.435986 130.435986 0 0 0-156.936563 0l-43.847751 33.217993c-14.763552 11.2203-35.28489 11.2203-49.900807 0l-43.847751-33.217993c-43.55248-33.070358-103.344867-34.546713-148.668973-5.314879v-67.321799l45.324106-34.399077a41.633218 41.633218 0 0 1 49.900807 0l43.847751 33.217993a129.99308 129.99308 0 0 0 156.936563 0l43.847751-33.217993c14.763552-11.2203 35.28489-11.2203 49.900807 0l43.847751 33.217993a129.623991 129.623991 0 0 0 78.542099 26.279123c27.755479 0 55.363322-8.710496 78.542099-26.279123l43.847751-33.217993c6.93887-5.314879 15.354095-8.267589 24.064591-8.415225 24.507497-0.590542 43.847751-20.816609 43.404844-45.176471s-20.816609-43.995386-45.17647-43.404844c-27.607843 0.590542-53.739331 9.743945-75.737025 26.426759l-43.847751 33.217993c-14.615917 11.072664-35.137255 11.2203-49.900807 0l-43.847751-33.217993a130.435986 130.435986 0 0 0-156.936563 0l-43.847751 33.217993c-14.763552 11.072664-35.28489 11.072664-49.900807 0l-43.847751-33.217993c-43.55248-33.070358-103.344867-34.546713-148.668973-5.314879v-67.321799l45.324106-34.399078a41.633218 41.633218 0 0 1 49.900807 0l43.847751 33.217993c46.209919 35.137255 110.726644 34.989619 156.936563 0l43.847751-33.217993c14.763552-11.2203 35.28489-11.2203 49.900807 0l43.847751 33.217993a129.623991 129.623991 0 0 0 78.542099 26.279124c27.755479 0 55.363322-8.710496 78.542099-26.279124l43.847751-33.217993c6.93887-5.167243 15.058824-8.119954 23.76932-8.415225a44.246367 44.246367 0 0 0 42.961938-45.619377 44.246367 44.246367 0 0 0-44.290658-42.961937h-1.32872c-27.164937 0.738178-53.001153 9.89158-74.703575 26.279123l-43.847751 33.217993c-14.615917 11.072664-35.28489 11.072664-49.900807 0l-43.847751-33.217993a130.435986 130.435986 0 0 0-156.936563 0l-43.847751 33.217993c-14.763552 11.2203-35.28489 11.2203-49.900807 0l-43.847751-33.217993c-43.55248-33.070358-103.344867-34.546713-148.668974-5.167243V0H170.519031L0 1024h456.046136v-33.070358l45.324106-34.399077a41.633218 41.633218 0 0 1 49.900808 0l43.84775 33.217993c46.209919 34.989619 110.726644 35.137255 156.936563 0l43.847751-33.217993c14.763552-11.072664 35.28489-11.2203 49.900808 0l43.84775 33.217993a129.623991 129.623991 0 0 0 78.5421 26.279124c27.755479 0 55.363322-8.710496 78.542099-26.279124l43.847751-33.217993a41.337947 41.337947 0 0 1 24.950403-8.415225 44.231603 44.231603 0 1 0 0-88.433679z m-748.069204 75.737024H104.525952L245.517878 88.581315h121.799308v846.83737z"/>
</g>
</svg>