<!DOCTYPE svg PUBLIC "-//W3C//DTD SVG 1.1//EN" "http://www.w3.org/Graphics/SVG/1.1/DTD/svg11.dtd">
<!-- Uploaded to: SVG Repo, www.svgrepo.com, Transformed by: SVG Repo Mixer Tools -->
<svg height="256px" width="256px" version="1.1" id="Layer_1" xmlns="http://www.w3.org/2000/svg" xmlns:xlink="http://www.w3.org/1999/xlink" viewBox="0 0 512.00 512.00" xml:space="preserve" fill="#000000" stroke="#000000" stroke-width="0.00512">
<g id="SVGRepo_bgCarrier" stroke-width="0"/>
<g id="SVGRepo_tracerCarrier" stroke-linecap="round" stroke-linejoin="round" stroke="#CCCCCC" stroke-width="3.072"/>
<g id="SVGRepo_iconCarrier"> <path style="fill:#d7e0e5;" d="M452.441,88.931c0-24.674-19.951-44.748-44.476-44.748c-1.532,0-3.06,0.085-4.58,0.239 c-7.711-20.278-27.14-33.974-49.166-33.974c-22.026,0-41.452,13.695-49.163,33.974c-1.522-0.154-3.049-0.239-4.584-0.239 C275.951,44.184,256,64.257,256,88.931H452.441z"/> <g> <polygon style="fill:#ffffff;" points="10.449,256 89.339,155.167 123.418,197.62 162.656,162.622 256,256 "/> <polygon style="fill:#ffffff;" points="256,256 340.714,171.596 399.228,229.933 452.518,185.024 501.551,234.057 501.551,256 "/> </g> <g> <path style="fill:#9ed99b;" d="M119.865,364.669c0-13.744-11.112-24.924-24.773-24.924c-0.853,0-1.704,0.047-2.55,0.133 c-4.296-11.294-15.118-18.923-27.385-18.923c-12.268,0-23.089,7.629-27.385,18.923c-0.846-0.086-1.698-0.133-2.552-0.133 c-13.659,0-24.772,11.18-24.772,24.924H119.865z"/> <path style="fill:#9ed99b;" d="M488.987,462.008c0-18.395-14.856-33.363-33.121-33.363c-1.141,0-2.278,0.063-3.408,0.178 c-5.745-15.119-20.213-25.329-36.613-25.329c-16.402,0-30.868,10.211-36.612,25.329c-1.132-0.115-2.271-0.178-3.412-0.178 c-18.262,0-33.119,14.966-33.119,33.363H488.987z"/> </g> <path style="fill:#afe3fd;" d="M221.518,256c0,0,75.233,47.02-12.284,110.374c-92.256,66.785-70.688,133.938-66.969,135.177h168.069 c-3.72-1.239-46.093-70.115,19.853-133.747C389.747,310.335,275.853,256,275.853,256"/> <path d="M416.653,266.449c5.77,0,10.449-4.678,10.449-10.449c0-5.771-4.679-10.449-10.449-10.449h-25.6 c-5.77,0-10.449,4.678-10.449,10.449c0,5.771,4.679,10.449,10.449,10.449H416.653z"/> <path d="M508.939,226.669l-49.033-49.033c-3.838-3.838-9.971-4.098-14.123-0.601l-45.963,38.733l-51.73-51.573 c-4.078-4.065-10.676-4.067-14.752-0.002l-77.325,77.041l-85.969-86.001c-3.916-3.917-10.21-4.099-14.345-0.412l-31.024,27.672 l-27.189-33.867c-1.983-2.471-4.981-3.908-8.148-3.908c-0.022,0-0.044,0-0.066,0c-3.191,0.021-6.198,1.497-8.164,4.01L2.219,249.561 c-2.462,3.148-2.914,7.423-1.163,11.016c1.75,3.591,5.397,5.871,9.393,5.871H51.2c5.77,0,10.449-4.678,10.449-10.449 c0-5.771-4.679-10.449-10.449-10.449H31.891l57.553-73.561l25.827,32.171c1.794,2.235,4.426,3.635,7.282,3.872 c2.861,0.229,5.683-0.709,7.821-2.615l31.871-28.429l68.535,68.561H87.774c-5.77,0-10.449,4.678-10.449,10.449 c0,5.771,4.679,10.449,10.449,10.449h130.452c6.083,4.543,22.326,18.395,22.902,37.144c0.534,17.393-12.258,35.668-38.021,54.316 c-31.998,23.164-54.317,48.894-66.335,76.476c-11.318,25.972-10.404,46.802-8.851,56.906c2.671,17.383,8.753,19.409,11.042,20.173 c1.066,0.355,2.181,0.536,3.303,0.536h168.069c5.124,0,9.494-3.718,10.314-8.775c0.615-3.796-0.903-7.508-3.754-9.808 c-2.349-3.14-11.249-18.577-12.725-40.429c-1.916-28.38,9.278-54.51,33.273-77.663c16.046-15.483,22.7-32.45,19.777-50.429 c-3.905-24.015-25.029-44.464-44.161-58.446h42.468c5.77,0,10.449-4.678,10.449-10.449c0-5.771-4.679-10.449-10.449-10.449h-74.236 l59.421-59.203l51.138,50.985c3.839,3.825,9.965,4.083,14.111,0.589l45.953-38.725l39.188,39.189v7.165h-38.661 c-5.77,0-10.449,4.678-10.449,10.449c0,5.771,4.679,10.449,10.449,10.449h49.11c5.77,0,10.449-4.678,10.449-10.449v-21.943 C512,231.286,510.899,228.629,508.939,226.669z M336.592,328.249c1.784,10.967-2.684,21.445-13.659,32.036 c-44.511,42.948-42.318,88.347-37.05,111.587c1.747,7.706,4.045,14.196,6.187,19.23H149.107c-1.421-6.385-2.53-19.028,2.191-35.531 c5.654-19.766,21.358-49.819,64.066-80.734c31.796-23.018,47.491-47.264,46.648-72.068c-0.504-14.825-6.908-27.103-14.102-36.322 h25.517C291.329,275.438,332.187,301.158,336.592,328.249z"/> <path d="M130.314,364.669c0-18.168-13.708-33.18-31.282-35.154c-7.146-11.603-19.989-19.011-33.876-19.011 s-26.73,7.407-33.876,19.01C13.707,331.489,0,346.501,0,364.669c0,5.771,4.679,10.449,10.449,10.449h109.416 C125.635,375.118,130.314,370.44,130.314,364.669z M25.319,354.22c2.574-2.493,6.065-4.026,9.902-4.026 c0.473,0,0.979,0.026,1.5,0.079c4.702,0.471,9.139-2.264,10.819-6.682c2.773-7.291,9.853-12.189,17.618-12.189 c7.766,0,14.845,4.898,17.618,12.189c1.679,4.418,6.119,7.158,10.819,6.682c0.52-0.053,1.023-0.079,1.497-0.079 c3.839,0,7.33,1.534,9.905,4.026H25.319z"/> <path d="M459.023,418.305c-8.719-15.359-25.252-25.26-43.178-25.26c-17.929,0-34.464,9.902-43.181,25.267 c-22.555,1.631-40.41,20.607-40.41,43.697c0,2.773,1.102,5.432,3.065,7.393c1.959,1.957,4.615,3.056,7.384,3.056 c0.004,0,0.008,0,0.011,0l148.401-0.163c5.767-0.006,10.438-4.682,10.438-10.449C501.551,439.198,482.382,419.914,459.023,418.305z M355.655,451.545c3.767-7.386,11.391-12.45,20.165-12.45c0.755,0,1.545,0.042,2.352,0.123c4.72,0.484,9.147-2.262,10.826-6.683 c4.226-11.121,15.013-18.592,26.844-18.592c11.831,0,22.62,7.471,26.845,18.592c1.68,4.422,6.117,7.171,10.827,6.683 c0.805-0.081,1.595-0.123,2.348-0.123c9.168,0,17.555,5.125,21.826,12.315L355.655,451.545z"/> <path d="M256,99.38h76.013l-2.664,2.664c-4.08,4.08-4.08,10.697,0,14.777c2.041,2.04,4.715,3.061,7.388,3.061 c2.675,0,5.348-1.021,7.388-3.061l17.441-17.441h36.274l-1.101,1.101c-4.08,4.08-4.08,10.697,0,14.778 c2.041,2.04,4.715,3.061,7.388,3.061c2.675,0,5.348-1.021,7.388-3.061l15.878-15.878h25.046c5.77,0,10.449-4.679,10.449-10.449 c0-29.745-23.534-54.069-52.873-55.159C399.218,13.303,377.656,0,354.219,0c-23.436,0-44.996,13.303-55.794,33.772 c-29.34,1.087-52.874,25.413-52.874,55.159C245.551,94.702,250.23,99.38,256,99.38z M300.473,54.632 c1.126,0,2.314,0.063,3.532,0.186c4.703,0.469,9.139-2.264,10.818-6.681c6.196-16.293,22.029-27.239,39.397-27.239 c17.369,0,33.203,10.946,39.399,27.238c1.679,4.419,6.121,7.158,10.82,6.681c1.213-0.123,2.4-0.186,3.525-0.186 c15.15,0,28.018,10.031,32.414,23.85H268.063C272.457,64.664,285.325,54.632,300.473,54.632z"/> <path d="M296.606,110.739l-17.772,17.772c-4.08,4.08-4.08,10.697,0,14.778c2.041,2.04,4.715,3.061,7.388,3.061 c2.675,0,5.348-1.021,7.388-3.061l17.772-17.772c4.08-4.08,4.08-10.697,0-14.778C307.301,106.66,300.687,106.66,296.606,110.739z"/> <path d="M362.696,115.703l-17.772,17.772c-4.08,4.08-4.08,10.697,0,14.778c2.041,2.04,4.715,3.061,7.388,3.061 c2.674,0,5.348-1.021,7.388-3.061l17.772-17.772c4.08-4.08,4.08-10.697,0-14.778C373.392,111.622,366.778,111.622,362.696,115.703z"/> </g>
</svg>