<!DOCTYPE svg PUBLIC "-//W3C//DTD SVG 1.1//EN" "http://www.w3.org/Graphics/SVG/1.1/DTD/svg11.dtd">
<!-- Uploaded to: SVG Repo, www.svgrepo.com, Transformed by: SVG Repo Mixer Tools -->
<svg fill="#000000" width="256px" height="256px" viewBox="0 0 256.00 256.00" id="Flat" xmlns="http://www.w3.org/2000/svg">
<g id="SVGRepo_bgCarrier" stroke-width="0">
<path transform="translate(0, 0), scale(8)" d="M16,26.302154053002596C18.30710125632476,25.704666542297307,20.244443321293815,24.648601672214905,22.394671251782054,23.620872437770178C25.66039251857581,22.059978743737595,30.51296825105506,22.179608966655422,31.74554939397405,18.776365184235445C32.955485415941276,15.435646183671803,29.859421133559973,12.038578527766617,27.575204900888338,9.317052334547046C25.64318412162454,7.015148915157953,23.049863495034206,5.132937635802959,20.057869408423436,4.851095429260932C17.44216050050701,4.60469882922156,15.618467982927223,7.310809278061604,13.070297179966177,7.950707656244541C9.95348285313697,8.733404181343154,5.546383327362657,6.26078281587553,3.7727882942488353,8.940616030246012C2.0330875091855662,11.5692363521545,6.274586607131847,14.518797432661437,6.652150463489553,17.648278084889906C7.072959013286071,21.136197261223536,3.4764043042521062,25.46594163749735,6.054473021650608,27.852617506690518C8.593153511316956,30.20282928475058,12.650950175941048,27.16948288701858,16,26.302154053002596" fill="#afeeca" strokewidth="0"/>
</g>
<g id="SVGRepo_tracerCarrier" stroke-linecap="round" stroke-linejoin="round"/>
<g id="SVGRepo_iconCarrier"> <path d="M188.51855,70.68652a21.99854,21.99854,0,0,0-39.66113,3.30518L131.3418,43.65332a21.99426,21.99426,0,0,0-39.68018,3.36523A21.97221,21.97221,0,0,0,52.5957,66.68018a21.97842,21.97842,0,0,0-18.248,32.97314l5.51562,9.55371a21.99842,21.99842,0,0,0-22.69336,32.69531l37,64.08594a75.94585,75.94585,0,0,0,137.23828-12.157,76.35611,76.35611,0,0,0,14.11035-93.69946Zm-83.22949-28.1582a14.02127,14.02127,0,0,1,19.125,5.125l24.20508,41.92432A21.97738,21.97738,0,0,0,129.145,103.84839L111.62891,73.50977a21.85719,21.85719,0,0,0-9.77-8.9209L100.168,61.65942l-.00293-.0061A14.01684,14.01684,0,0,1,105.28906,42.52832ZM59.58984,55.17285a14.00026,14.00026,0,0,1,25.64746-3.376L91.45117,62.5603A21.88524,21.88524,0,0,0,71.95459,76.88379a21.84519,21.84519,0,0,0-9.27246-8.15186L60.9873,65.79688A13.908,13.908,0,0,1,59.58984,55.17285Zm94.39844,171.70508a68.08124,68.08124,0,0,1-92.89062-24.88965l-37-64.08594a14.00056,14.00056,0,1,1,24.25-14l.00048.00049,23.99952,41.56885a3.9998,3.9998,0,1,0,6.92773-4l-38-65.81836a14.00013,14.00013,0,1,1,24.249-14l38,65.81836a3.9998,3.9998,0,0,0,6.92774-4l-30-51.96167v-.00024a14.00013,14.00013,0,1,1,24.249-14l42,72.74609a3.9998,3.9998,0,0,0,6.92774-4l-16-27.7124V118.543a13.99966,13.99966,0,0,1,15.748-20.52246q.67676.18127,1.3252.425l.021.009a13.89413,13.89413,0,0,1,7.15479,6.08838l17,29.44531A68.07776,68.07776,0,0,1,153.98828,226.87793Zm41.41406-49.75269a75.59883,75.59883,0,0,0-9.59668-47.137l-17-29.44531a21.82679,21.82679,0,0,0-9.77587-8.93286l-1.688-2.9231v-.00049a14.00013,14.00013,0,0,1,24.249-14l17,29.44532A68.425,68.425,0,0,1,195.40234,177.12524ZM168.8418,25.69043l4.1416-15.4541A3.99956,3.99956,0,1,1,180.71,12.30664l-4.1416,15.4541a3.99956,3.99956,0,1,1-7.72656-2.07031Zm25.76758,10.4834,9.17773-13.10645a3.99959,3.99959,0,1,1,6.55273,4.58789l-9.17773,13.10645a3.99959,3.99959,0,0,1-6.55273-4.58789Zm38.32324,16.03906-13.10645,9.17773a3.99959,3.99959,0,0,1-4.58789-6.55273l13.10645-9.17773a3.99959,3.99959,0,1,1,4.58789,6.55273Z"/> </g>
</svg>